<svg xmlns="http://www.w3.org/2000/svg" width="208" height="50" viewBox="0 0 208 50">
    <g fill="none" fill-rule="evenodd">
        <g>
            <g>
                <g>
                    <path fill="#FFF" d="M23.614 24.103c.02-.034.012-.078-.02-.103-.628-.435-1.283-.83-1.963-1.18-.963-.506-2.126-.45-3.035.147-.943.566-1.493 1.427-1.487 1.931.083.51.356.967.764 1.284.694.635 1.606.981 2.548.968.045-.006.085-.028.113-.063.221-.314.493-.589.805-.814.643-.498 1.33-.938 2.052-1.315.04-.014.069-.051.072-.094-.019-.264.037-.527.16-.76h-.01zm1.257-.783c.06-.755.075-1.513.044-2.27-.045-1.084-.677-2.059-1.65-2.545-.962-.526-1.986-.576-2.42-.313-.398.323-.66.783-.735 1.29-.203.905-.056 1.853.412 2.655.026.036.065.06.11.069.403.045.792.17 1.147.366.69.359 1.358.762 1.998 1.206.031.025.076.025.107 0 .244-.234.567-.368.905-.376.043-.004.077-.038.082-.082zm-.151 6.45c.017-.04.017-.087 0-.128-.169-.353-.275-.732-.314-1.12-.113-.804-.152-1.615-.117-2.424 0-.042-.022-.08-.06-.1-.12-.06-.232-.136-.333-.226-.15-.137-.266-.306-.342-.495-.014-.033-.052-.05-.085-.037l-.006.003c-.683.363-1.335.782-1.948 1.252-.939.694-1.449 1.824-1.345 2.984.053.886.424 1.713.88 1.967.342.187.98.172 1.627-.041.866-.264 1.597-.85 2.043-1.635zm3.378-6.785c.92-.579 1.452-1.612 1.385-2.696-.022-1.092-.49-2-.942-2.248-.476-.183-1.004-.183-1.48 0-.9.278-1.658.887-2.121 1.704-.018.04-.018.087 0 .128.16.37.245.768.251 1.171.034.77.018 1.542-.047 2.31-.002.042.024.08.063.092.206.059.394.166.55.313.09.084.17.18.235.285.023.032.064.045.1.031.691-.32 1.36-.685 2.006-1.09zm1.439 6.98c.208-.893.06-1.831-.412-2.618-.027-.037-.068-.06-.113-.066-.39-.034-.77-.132-1.128-.291-.75-.302-1.47-.67-2.152-1.102-.036-.022-.081-.022-.117 0-.249.175-.55.261-.854.244h-.114c-.036-.005-.07.02-.074.056v.004c-.026.773.014 1.547.118 2.313.133 1.157.86 2.162 1.92 2.653.795.394 1.7.488 2.15.222.33-.21.634-.761.776-1.415zm1.728-3.566c.742-.49 1.257-1.222 1.257-1.742 0-.388-.34-.939-.842-1.38-.66-.608-1.527-.944-2.426-.94-.045.005-.085.028-.113.063-.245.33-.552.609-.905.82-.652.417-1.331.79-2.033 1.118-.037.017-.057.058-.047.097.1.403.012.83-.24 1.162-.026.024-.028.066-.003.093l.004.004c.658.402 1.347.75 2.061 1.043 1.08.47 2.327.341 3.287-.338zm1.552-1.745c0 .626-.55 1.428-1.395 1.982-.57.387-1.234.613-1.923.655-.04 0-.056.028-.034.062.437.819.562 1.768.351 2.671-.16.739-.509 1.35-.91 1.588-.299.157-.636.223-.972.19-.505-.034-.998-.171-1.448-.403-.621-.299-1.15-.758-1.53-1.331-.01-.02-.033-.03-.054-.022-.01.004-.018.012-.022.022-.486.773-1.234 1.346-2.108 1.616-.386.13-.791.192-1.198.181-.23-.005-.455-.062-.66-.166-.553-.313-.964-1.19-1.027-2.192-.05-.693.09-1.386.405-2.007.02-.034 0-.062-.037-.062h-.11c-.914-.058-1.781-.425-2.458-1.04-.467-.368-.773-.902-.854-1.49 0-.676.688-1.616 1.624-2.192.51-.315 1.091-.5 1.69-.538.042 0 .057-.032.038-.066-.43-.832-.556-1.788-.351-2.702.084-.585.394-1.114.864-1.475.584-.35 1.747-.216 2.705.313.53.287.983.698 1.317 1.2.009.02.032.03.053.021.01-.004.018-.012.022-.022.51-.802 1.29-1.397 2.2-1.678.546-.22 1.157-.22 1.703 0 .594.329 1.059 1.4 1.08 2.505.02.591-.106 1.178-.367 1.71-.019.037 0 .065.041.065.907.041 1.77.402 2.435 1.018.563.507.92 1.114.93 1.587z" transform="translate(-157 -25) translate(157 25)"/>
                    <path fill="#819EA6" d="M28 26.743c-.714-.292-1.403-.64-2.061-1.043-.027-.024-.029-.066-.004-.093l.004-.004c.251-.332.339-.758.239-1.162-.01-.04.01-.08.047-.097.702-.327 1.38-.7 2.033-1.117.352-.212.66-.49.905-.82.028-.036.068-.058.113-.063.899-.005 1.766.331 2.426.939.49.445.823.986.83 1.374 0 .52-.525 1.253-1.258 1.741-.955.678-2.197.808-3.274.345m-2.787-3.304c-.04-.012-.065-.05-.063-.09.066-.769.081-1.54.047-2.311-.006-.403-.091-.8-.251-1.171-.017-.041-.017-.087 0-.129.463-.816 1.222-1.425 2.121-1.703.476-.184 1.004-.184 1.48 0 .446.254.914 1.15.936 2.242.067 1.083-.464 2.116-1.385 2.696-.643.406-1.31.772-1.999 1.096-.037.014-.078 0-.1-.032-.065-.105-.145-.2-.236-.284-.156-.147-.344-.254-.55-.314m-.342-.119c-.009.04-.042.07-.082.072-.338.009-.661.143-.905.376-.031.025-.076.025-.107 0-.64-.444-1.307-.846-1.998-1.205-.354-.194-.743-.316-1.144-.36-.045-.008-.084-.033-.11-.07-.467-.801-.614-1.75-.412-2.654.075-.507.337-.967.735-1.29.434-.26 1.458-.21 2.42.313.973.488 1.604 1.463 1.647 2.548.031.757.016 1.515-.044 2.27m-1.248.783c-.123.234-.179.497-.16.761.002.042-.022.082-.06.1-.722.377-1.409.817-2.052 1.315-.311.225-.583.5-.804.814-.028.035-.069.058-.113.063-.943.013-1.854-.333-2.549-.967-.408-.317-.68-.776-.763-1.284 0-.504.547-1.365 1.486-1.932.91-.596 2.072-.653 3.035-.147.679.349 1.334.74 1.961 1.174.031.025.039.069.02.103m25.646-3.88C47.353 8.327 37.29 0 24.795 0 12.78-.016 2.48 8.553.352 20.337c-.433 2.73-.467 5.507-.101 8.247C1.987 39.742 11.093 48.307 22.372 49.39c1.332.106 2.67.121 4.004.044h-.066v-.883c.047-2.968 2.699-4.096 4.525-4.734.182-.076.314-.122.314-.122 8.528-2.634 13.866-10.5 13.681-19.366-.215-8.937-6.339-16.654-15.017-18.922-.09-.024-.185-.037-.28-.037-.223 0-.442.066-.628.19-.276.184-.461.475-.509.802-.075.564.277 1.098.827 1.253 7.836 2.025 13.309 9.072 13.31 17.14.025 6.26-3.34 12.046-8.801 15.138-.894.51-1.96.624-2.941.313-.998-.32-1.82-1.037-2.272-1.978-.738-1.54-.233-3.387 1.187-4.34 2.85-1.929 5.678-5.777 5.581-9.393-.164-5.498-4.565-9.933-10.08-10.158h-.418c-5.792.005-10.486 4.684-10.489 10.455 0 3.4 2.008 6.998 4.776 8.557 2.307 1.303 2.583 3.639 1.66 5.273-.458.816-1.224 1.415-2.128 1.663-.307.085-.624.128-.943.128-.594-.002-1.179-.156-1.696-.448-5.264-2.977-8.94-9.214-8.94-15.173-.014-8.055 5.432-15.103 13.25-17.149.615-.154.988-.775.834-1.387-.129-.51-.589-.866-1.116-.864-.1 0-.199.013-.295.037C10.883 7.736 4.736 15.68 4.738 24.764c0 8.097 5.06 15.427 12.883 18.68.723.326 1.491.544 2.279.645 1.055.09 2.026-.116 2.608-.739.886-.94.788-2.486.83-3.773v-8.445c-.209.114-.428.208-.658.28-.647.212-1.285.228-1.627.04-.456-.254-.827-1.08-.88-1.966-.103-1.16.406-2.29 1.345-2.984.613-.47 1.265-.89 1.948-1.253.032-.016.072-.003.089.029l.002.006c.076.188.193.357.343.494.1.09.212.166.333.226.037.02.06.058.06.1-.036.81.003 1.621.116 2.423.025.254.082.502.163.743h.302c-.092-.248-.158-.508-.189-.777-.105-.766-.145-1.54-.12-2.314.004-.036.036-.063.072-.06h.117c.305.018.606-.069.855-.244.035-.022.08-.022.116 0 .683.431 1.404.8 2.153 1.103.357.158.738.257 1.128.29.047.009.089.038.113.08.472.785.62 1.724.411 2.617-.14.654-.446 1.205-.776 1.402-.449.267-1.354.173-2.149-.222-.287-.133-.546-.306-.78-.507v13.035c.008.55-.116 1.095-.364 1.587-.575 1.115-1.726 1.818-2.985 1.822-.13 0-.26-.008-.39-.025C9.723 45.561.918 34.36 2.42 22.04 3.534 12.9 10.13 5.363 19.064 3.02c.308-.08.624-.12.942-.12 2.008.004 3.633 1.63 3.629 3.63-.003 1.648-1.122 3.086-2.724 3.5-6.709 1.759-11.386 7.803-11.387 14.716 0 5.026 3.23 10.499 7.676 13.016.145.083.308.126.475.125.093 0 .186-.012.276-.037.266-.073.492-.247.629-.486.195-.34.509-1.205-.717-1.903-3.554-2.001-6.033-6.406-6.033-10.715 0-7.143 5.812-12.934 12.98-12.934h.507c6.824.273 12.272 5.762 12.471 12.565.132 4.753-3.252 9.211-6.664 11.522-.403.267-.55.787-.346 1.224.154.328.44.575.786.683.118.038.242.057.367.056.21-.001.417-.055.6-.156 4.684-2.646 7.573-7.602 7.557-12.966 0-6.937-4.705-12.998-11.444-14.741-1.775-.464-2.922-2.178-2.667-3.99.146-1.018.716-1.927 1.57-2.504.597-.395 1.296-.605 2.012-.605.302 0 .603.038.895.113 12.053 3.117 19.287 15.38 16.16 27.389-1.894 7.27-7.308 13.116-14.428 15.58-2.828 1.007-3.344 1.84-3.363 2.861v.341c1.1-.156 2.183-.41 3.237-.757C41.443 45.57 48.085 37.99 49.427 28.64c.339-2.799.286-5.631-.157-8.416" transform="translate(-157 -25) translate(157 25)"/>
                </g>
                <g fill="#777776">
                    <path d="M15.505 29.183c1.486.02 2.96-.273 4.327-.86 1.262-.55 2.385-1.378 3.286-2.422.95-1.122 1.664-2.427 2.096-3.836.506-1.633.751-3.337.726-5.047.025-1.794-.219-3.582-.726-5.303-.428-1.467-1.133-2.838-2.078-4.036-.886-1.093-2.01-1.967-3.286-2.553-2.779-1.2-5.926-1.2-8.705 0-1.276.584-2.4 1.458-3.286 2.553-.944 1.198-1.65 2.57-2.078 4.036-.506 1.72-.751 3.509-.725 5.303-.025 1.71.22 3.414.725 5.047.431 1.405 1.138 2.71 2.078 3.836.896 1.05 2.02 1.88 3.286 2.422 1.379.586 2.864.876 4.36.853v.007zm0-26.986c2.05-.017 4.085.37 5.988 1.138 1.788.717 3.424 1.771 4.817 3.107 1.366 1.325 2.458 2.91 3.213 4.66.788 1.83 1.186 3.806 1.168 5.8.013 1.924-.392 3.827-1.186 5.578-.77 1.71-1.868 3.251-3.231 4.533-1.403 1.316-3.04 2.356-4.824 3.064-3.83 1.493-8.075 1.493-11.904 0-1.782-.703-3.416-1.738-4.817-3.049-1.362-1.285-2.46-2.828-3.228-4.54-.794-1.751-1.198-3.655-1.186-5.58-.018-1.993.38-3.968 1.168-5.798C2.238 9.356 3.332 7.77 4.7 6.442 6.091 5.1 7.726 4.04 9.517 3.321c1.904-.764 3.938-1.146 5.988-1.124zM48.398 17.248c0-1.003-.026-1.795-.073-2.367-.016-.467-.148-.922-.384-1.324-.218-.314-.544-.536-.914-.624-.546-.134-1.101-.225-1.661-.273v-1.287h6.608V22.64c0 1.398.018 2.537.055 3.417.017.663.072 1.324.163 1.98.033.263.114.518.24.751.117.193.289.346.492.442.27.123.56.198.857.222.362.037.808.055 1.37.055v1.284l-6.024.448-.403-4.412h-.145c-.77 1.357-1.868 2.498-3.192 3.318-1.143.68-2.446 1.042-3.775 1.047-1.021 0-2.032-.2-2.978-.587-.856-.315-1.609-.862-2.176-1.58-.466-.666-.77-1.433-.892-2.239-.204-1.225-.296-2.466-.276-3.708v-5.835c0-1.003-.025-1.794-.072-2.367-.01-.464-.135-.92-.363-1.323-.219-.314-.544-.536-.914-.624-.546-.134-1.101-.225-1.661-.274V11.37h6.58v10.025c0 2.674.309 4.607.928 5.798.538 1.151 1.714 1.862 2.977 1.802 2.14 0 3.807-1.408 5.002-4.223.12-.292.217-.562.29-.806.077-.266.14-.536.185-.81.047-.291.083-.623.109-.988.025-.365.036-.81.036-1.324l.011-3.595zM62.797 24.993c0 1.004.026 1.8.076 2.385.007.47.132.93.363 1.339.21.31.53.526.896.605.54.12 1.09.194 1.643.222v1.284h-9.713v-1.284c.565-.006 1.129-.074 1.68-.204.376-.084.712-.298.95-.605.249-.377.394-.814.42-1.265.07-.739.1-1.48.09-2.221v-4.296c0-1.663 0-2.958-.054-3.891.008-.702-.115-1.398-.362-2.054-.17-.41-.532-.706-.965-.791-.6-.096-1.206-.139-1.814-.128v-1.283l6.391-1.397.511 4.551h.146c.308-.72.707-1.398 1.186-2.016.448-.586.97-1.11 1.552-1.561.536-.415 1.125-.755 1.752-1.01.591-.24 1.223-.364 1.86-.365.663-.037 1.318.164 1.847.569.447.374.696.936.674 1.52.028.519-.172 1.023-.547 1.379-.444.356-1.005.533-1.57.496-.336.007-.67-.042-.988-.146-.248-.088-.49-.192-.725-.314l-.584-.313c-.186-.097-.392-.147-.602-.146-.655 0-1.313.422-1.973 1.265-.713.961-1.232 2.053-1.53 3.213-.212.789-.364 1.592-.457 2.403-.113.932-.169 1.87-.168 2.809l.015 1.25z" transform="translate(-157 -25) translate(157 25) translate(58.257 9.103)"/>
                    <path d="M79.173 16.146h2.59c2.432 0 4.24-.471 5.422-1.415 1.182-.943 1.772-2.49 1.77-4.642 0-2.079-.468-3.565-1.404-4.46-.936-.895-2.402-1.34-4.4-1.338h-3.358c-.3-.044-.577.165-.62.466-.008.052-.008.105 0 .157v11.232zm14.53-6.499c.018 1.193-.192 2.378-.621 3.49-.414 1.025-1.088 1.923-1.955 2.604-1.033.781-2.212 1.343-3.467 1.653-1.7.423-3.45.62-5.201.587h-3.286v7.085c-.013.744.042 1.487.163 2.221.076.511.32.982.693 1.338.44.357.972.58 1.534.642.877.124 1.762.178 2.648.164v1.397H71.324v-1.411c.692-.004 1.382-.078 2.06-.22.459-.087.884-.303 1.226-.623.316-.346.52-.781.584-1.247.107-.692.155-1.393.145-2.093V8.13c.01-.693-.032-1.387-.127-2.075-.057-.453-.234-.884-.511-1.247-.292-.326-.684-.545-1.114-.623-.626-.13-1.262-.21-1.9-.24V2.55h11.465c3.358 0 5.956.624 7.794 1.87 1.776 1.128 2.824 3.117 2.756 5.226zM105.784 19.964c-1.204.456-2.38.982-3.522 1.576-.828.425-1.605.942-2.318 1.542-.514.428-.942.952-1.258 1.543-.25.488-.383 1.03-.385 1.579-.024.744.267 1.464.802 1.98.576.53 1.338.808 2.118.773.622.003 1.233-.162 1.77-.478.567-.331 1.06-.775 1.45-1.305.435-.588.768-1.245.987-1.943.246-.765.368-1.564.363-2.367l-.007-2.9zm0-1.579V16.88c0-2.983-1.265-4.475-3.794-4.478-.356-.007-.712.03-1.06.11-.266.063-.514.188-.725.364-.22.208-.4.455-.53.73-.179.379-.33.771-.452 1.174-.159.522-.427 1.005-.787 1.415-.312.258-.71.389-1.114.364-1.209 0-1.813-.607-1.813-1.823 0-1.174.62-2.086 1.86-2.735 1.24-.65 3.006-.973 5.295-.97 2.436 0 4.163.434 5.183 1.302 1.021.868 1.532 2.342 1.535 4.423v8.224c0 2.786.547 4.18 1.643 4.182.333 0 .664-.042.986-.127.346-.113.634-.358.802-.682l.511.883c-.37.633-.933 1.13-1.606 1.414-.762.375-1.598.57-2.445.57-1.088 0-1.868-.344-2.394-1.029-.526-.686-.783-1.652-.783-2.9h-.182c-.608 1.168-1.516 2.15-2.63 2.845-1.117.697-2.409 1.06-3.724 1.047-1.53 0-2.738-.394-3.627-1.178-.885-.801-1.368-1.958-1.317-3.155-.008-1.21.466-2.374 1.317-3.23.542-.56 1.152-1.05 1.813-1.46.89-.55 1.817-1.037 2.775-1.458l5.263-2.316zM113.451 13.685v-1.357c1.105-.618 2.123-1.384 3.025-2.276.744-.776 1.316-1.702 1.68-2.716h1.058v4.624h4.893v1.725h-4.89v11.159c-.007.724.036 1.448.131 2.166.055.493.196.972.418 1.415.168.328.437.592.769.75.381.16.791.234 1.204.22.541.017 1.077-.116 1.548-.383.51-.34.94-.785 1.263-1.306l.91.7c-.32.884-.95 1.62-1.77 2.072-.959.511-2.034.763-3.12.73-1.605 0-2.828-.387-3.67-1.16-.841-.773-1.26-1.88-1.258-3.319V13.685h-2.19z" transform="translate(-157 -25) translate(157 25) translate(58.257 9.103)"/>
                    <path d="M132.105 24.993c0 1.004.024 1.8.072 2.385.015.471.148.932.385 1.339.21.31.53.526.896.605.54.12 1.09.194 1.643.222v1.284h-9.713v-1.284c.564-.03 1.125-.105 1.679-.222.377-.072.715-.281.95-.587.248-.378.393-.814.42-1.265.068-.739.098-1.48.091-2.221V9.87c0-1.444-.018-2.595-.054-3.453-.015-.653-.083-1.303-.203-1.944-.031-.256-.111-.504-.236-.73-.118-.192-.289-.345-.493-.44-.278-.127-.574-.207-.878-.238-.447-.056-.898-.081-1.349-.076V1.742l6.717-1.393v13.985h.145c.389-.513.85-.965 1.371-1.342.555-.407 1.147-.757 1.77-1.047.64-.295 1.305-.528 1.988-.696.663-.167 1.343-.253 2.027-.256 1.058-.013 2.107.187 3.087.587.85.326 1.601.87 2.176 1.58.456.665.766 1.421.91 2.217.222 1.229.321 2.478.294 3.727v5.875c0 1.003.022 1.79.073 2.366.013.473.144.934.38 1.342.206.317.526.54.893.624.54.12 1.09.194 1.643.223v1.283h-9.673v-1.283c.553-.008 1.104-.077 1.643-.205.372-.082.702-.297.928-.605.237-.382.375-.817.403-1.265.07-.739.1-1.48.09-2.221v-4.614c0-2.742-.316-4.694-.95-5.856-.633-1.162-1.691-1.743-3.174-1.743-1.103-.012-2.187.294-3.122.882-.94.592-1.704 1.429-2.209 2.422-.12.27-.225.521-.308.754-.093.256-.16.52-.203.788-.05.335-.08.672-.091 1.01v1.412l-.018 4.7z" transform="translate(-157 -25) translate(157 25) translate(58.257 9.103)"/>
                </g>
            </g>
        </g>
    </g>
</svg>
